<?xml version="1.0" encoding="UTF-8"?>
<!DOCTYPE svg PUBLIC "-//W3C//DTD SVG 1.1//EN" "http://www.w3.org/Graphics/SVG/1.1/DTD/svg11.dtd">
<!-- Creator: CorelDRAW X6 -->
<svg xmlns="http://www.w3.org/2000/svg" xml:space="preserve" width="1.88889in" height="1.5in" version="1.1" style="shape-rendering:geometricPrecision; text-rendering:geometricPrecision; image-rendering:optimizeQuality; fill-rule:evenodd; clip-rule:evenodd" viewBox="0 0 1889 1500"
    xmlns:xlink="http://www.w3.org/1999/xlink">
    <defs>
        <style type="text/css">
            <![CDATA[
    .fil0 {fill:#FEFEFE;fill-rule:nonzero}
   ]]>
        </style>
    </defs>
    <g id="Layer_x0020_1">
        <metadata id="CorelCorpID_0Corel-Layer"/>
        <path class="fil0" d="M376 1047c23,0 48,-1 75,-2 27,-1 55,-3 83,-4 28,-2 51,-4 69,-7 -2,8 -3,18 -4,29 -1,11 -2,23 -2,37 0,11 1,21 2,31 1,10 2,20 4,31 -47,-4 -90,-6 -127,-8 -37,-2 -74,-2 -111,-2 -41,0 -87,1 -140,2 -53,1 -107,4 -164,8 7,-33 11,-68 14,-105 2,-37 3,-71 3,-104l0 -59c0,-36 0,-69 -1,-99 0,-30 -1,-58 -1,-84 0,-26 -1,-52 -2,-76 -1,-24 -2,-50 -2,-76 -1,-35 -3,-70 -3,-107 -1,-36 -3,-69 -7,-99 47,7 96,10 144,10 23,0 46,-1 67,-2 21,-1 43,-4 66,-8 -2,20 -4,46 -5,78 -1,33 -2,68 -3,105 -1,37 -2,73 -2,109 0,36 -1,67 -1,94l0 52c0,11 0,28 1,52 0,24 1,50 1,77 0,27 0,53 1,77 0,24 1,41 1,50 7,0 23,0 45,-1z"/>
        <path class="fil0" d="M843 140c11,-14 23,-27 36,-37 14,-10 31,-15 52,-15 20,0 36,5 51,14 14,9 21,25 21,46 0,10 -2,19 -7,28 -5,9 -11,16 -19,23 -8,7 -15,13 -24,18 -8,5 -16,10 -23,14l-138 79 -77 0 126 -169zm108 842c1,66 4,126 10,180 -21,-4 -44,-6 -68,-8 -24,-2 -49,-2 -73,-2 -24,0 -48,1 -71,3 -23,2 -44,5 -63,7 4,-63 7,-125 8,-186 2,-61 3,-123 3,-186 0,-15 0,-34 0,-56 0,-22 -1,-45 -1,-68 0,-24 0,-47 -1,-69 0,-22 -1,-41 -1,-56 0,-26 -1,-56 -2,-89 -2,-33 -4,-65 -7,-97 19,2 42,5 68,7 25,2 49,4 70,4 23,0 47,-1 72,-3 25,-2 47,-4 66,-7 -4,54 -7,108 -9,160 -2,53 -3,106 -3,160l0 113c0,64 1,129 2,195z"/>
        <path class="fil0" d="M146 1443c0,20 1,38 3,55 -6,-1 -13,-2 -21,-2 -7,0 -15,-1 -22,-1 -7,0 -15,0 -22,1 -7,1 -14,1 -19,2 1,-19 2,-38 3,-57 1,-19 1,-37 1,-57 0,-5 0,-10 0,-17 0,-7 0,-14 0,-21 0,-7 0,-14 0,-21 0,-7 0,-12 0,-17 0,-8 0,-17 -1,-27 0,-10 -1,-20 -2,-30 6,1 13,1 21,2 8,1 15,1 21,1 7,0 14,0 22,-1 8,-1 14,-1 20,-2 -1,16 -2,33 -3,49 -1,16 -1,32 -1,49l0 34c0,19 0,39 1,59z"/>
        <path class="fil0" d="M282 1365c1,0 2,0 3,0l6 0c14,0 24,-4 30,-12 6,-8 8,-18 8,-32 0,-10 -1,-17 -4,-23 -3,-5 -6,-10 -10,-12 -4,-3 -8,-5 -13,-5 -5,-1 -9,-1 -13,-1 -2,0 -4,0 -5,0 -2,0 -4,0 -5,1l0 84c1,0 2,0 3,1zm95 51c6,9 11,19 17,28 6,9 12,19 18,28 6,9 12,18 17,25 -8,-1 -16,-2 -24,-2 -8,-1 -16,-1 -24,-1 -8,0 -15,0 -22,1 -7,1 -14,1 -22,2 -9,-18 -18,-36 -28,-53 -9,-18 -19,-35 -30,-53l-1 0c0,15 0,32 0,51 0,19 1,37 2,55 -7,-1 -13,-2 -20,-2 -7,-1 -14,-1 -21,-1 -6,0 -13,0 -20,1 -7,1 -14,1 -22,2 1,-12 2,-26 3,-42 1,-16 1,-32 1,-49 0,-8 0,-17 0,-28 0,-11 0,-24 -1,-38 0,-14 -1,-28 -1,-43 0,-15 -1,-31 -2,-46 8,1 16,2 24,2 8,0 16,1 23,1 11,0 22,-1 33,-2 11,-1 22,-2 33,-2 11,0 23,1 35,2 12,2 22,5 31,9 9,5 17,11 23,20 6,9 9,20 9,34 0,17 -5,31 -15,41 -10,10 -23,16 -40,20l8 13c5,8 10,17 16,26z"/>
        <path class="fil0" d="M535 1443c0,20 1,38 3,55 -6,-1 -13,-2 -21,-2 -7,0 -15,-1 -22,-1 -7,0 -15,0 -22,1 -7,1 -14,1 -19,2 1,-19 2,-38 3,-57 1,-19 1,-37 1,-57 0,-5 0,-10 0,-17 0,-7 0,-14 0,-21 0,-7 0,-14 0,-21 0,-7 0,-12 0,-17 0,-8 0,-17 -1,-27 0,-10 -1,-20 -2,-30 6,1 13,1 21,2 8,1 15,1 21,1 7,0 14,0 22,-1 8,-1 14,-1 20,-2 -1,16 -2,33 -3,49 -1,16 -1,32 -1,49l0 34c0,19 0,39 0,59z"/>
        <path class="fil0" d="M609 1446c3,5 7,9 12,12 5,3 10,6 16,8 6,2 12,3 19,3 4,0 8,0 12,-1 4,-1 8,-2 11,-4 3,-2 6,-4 8,-8 2,-3 3,-7 3,-11 0,-4 -1,-8 -3,-11 -2,-3 -5,-6 -10,-10 -5,-3 -11,-7 -18,-10 -8,-3 -17,-8 -28,-12 -15,-6 -28,-16 -37,-28 -10,-12 -14,-27 -14,-44 0,-14 2,-26 7,-36 5,-10 11,-18 20,-25 8,-7 18,-12 29,-15 11,-3 23,-5 35,-5 12,0 25,1 37,4 12,3 24,6 36,11 -3,8 -6,16 -9,25 -2,9 -4,18 -5,26l-14 0c-2,-10 -7,-19 -14,-26 -8,-7 -18,-11 -30,-11 -4,0 -8,0 -12,1 -4,1 -8,2 -12,4 -4,2 -6,4 -9,8 -2,3 -3,7 -3,12 0,4 1,8 3,11 2,3 5,6 9,8 4,3 9,5 14,7 5,2 11,5 18,8l27 12c15,7 26,16 33,27 7,11 10,25 10,42 0,14 -2,27 -7,37 -5,11 -12,19 -20,26 -9,7 -19,12 -30,15 -12,3 -24,5 -38,5 -8,0 -14,0 -21,-1 -6,-1 -12,-1 -18,-2 -6,-1 -12,-2 -18,-4 -6,-2 -12,-4 -19,-7 1,-5 2,-9 3,-13 1,-4 2,-8 2,-12 1,-4 1,-9 2,-14 1,-5 1,-10 2,-17l14 0c1,6 3,11 7,16z"/>
        <path class="fil0" d="M794 1369c0,-7 0,-15 0,-23 0,-8 0,-16 0,-23 0,-7 0,-12 0,-15 0,-8 0,-16 -1,-26 0,-9 -1,-20 -2,-31 6,1 13,1 21,2 8,1 15,1 21,1 6,0 14,0 21,-1 8,-1 15,-1 21,-2 -1,8 -1,16 -2,25 0,9 -1,17 -1,26 0,9 -1,17 -1,25 0,8 0,15 0,22 5,0 11,0 17,1 6,0 13,0 20,0 6,0 12,0 19,0 7,0 13,0 20,0 0,-7 0,-14 0,-22 0,-8 0,-16 -1,-25 0,-9 -1,-17 -1,-26 -1,-9 -1,-17 -2,-25 6,1 13,1 21,2 8,1 15,1 21,1 6,0 14,0 21,-1 8,-1 15,-1 21,-2 -1,14 -2,29 -3,45 0,15 -1,33 -1,54 0,15 0,29 0,42 0,13 0,25 1,36 0,12 1,23 1,34 0,11 1,23 1,35 -15,-2 -30,-3 -45,-3 -7,0 -13,0 -20,1 -7,1 -13,1 -20,2 1,-8 2,-17 2,-27 1,-11 1,-21 1,-32 0,-11 0,-21 0,-31 0,-10 0,-18 0,-24 -6,0 -12,0 -19,0 -6,0 -13,0 -19,0 -6,0 -12,0 -19,0 -7,0 -13,0 -19,1 0,6 0,14 0,24 0,10 0,20 1,31 0,11 1,22 1,32 0,11 1,20 2,27 -7,-1 -14,-2 -21,-2 -7,0 -14,-1 -22,-1 -9,0 -16,0 -23,1 -6,1 -13,1 -19,2l1 -17c0,-5 1,-11 1,-19 0,-8 1,-16 1,-25 0,-9 0,-18 0,-27 0,-9 0,-18 0,-25 0,-3 0,-8 0,-15z"/>
        <path class="fil0" d="M1257 1420l0 24c0,6 0,11 0,15 0,4 0,7 0,11 7,0 13,0 19,-1 6,0 11,-2 15,-5 4,-3 7,-7 10,-14 2,-6 4,-15 4,-26 0,-13 -3,-24 -8,-31 -5,-7 -14,-11 -25,-11l-14 0 0 37zm38 -73c5,-7 8,-16 8,-28 0,-5 -1,-11 -1,-15 -1,-5 -3,-9 -5,-12 -3,-3 -6,-6 -11,-8 -5,-2 -11,-3 -18,-3l-5 0c-1,0 -1,0 -2,0 -1,0 -1,0 -2,0 0,3 0,6 0,9 0,3 0,8 0,13l0 54 13 0c11,0 20,-3 25,-10zm42 26c9,2 18,6 25,11 7,5 13,11 17,19 4,8 6,17 6,29 0,12 -3,22 -8,31 -6,8 -13,15 -22,21 -9,5 -19,9 -30,12 -11,2 -22,4 -33,4 -11,0 -23,0 -37,-2 -14,-1 -27,-2 -40,-2 -6,0 -13,0 -19,1 -6,1 -13,1 -19,2 1,-11 1,-20 2,-28 0,-7 1,-14 1,-20 0,-6 1,-12 1,-19 0,-6 0,-14 0,-24l0 -80c0,-6 0,-11 0,-15 0,-4 0,-9 0,-14l-2 -48c16,2 32,3 48,3 11,0 22,-1 32,-2 10,-1 21,-2 31,-2 9,0 19,1 29,2 11,1 20,4 30,8 9,4 17,10 23,18 6,8 9,18 9,31 0,4 -1,9 -3,15 -2,6 -5,12 -11,17 -5,6 -12,11 -22,15 -9,4 -22,7 -37,8l0 1c10,1 20,3 29,5z"/>
        <path class="fil0" d="M1466 1418c2,0 5,0 7,0 3,0 5,0 8,0l30 0c2,0 5,0 7,0 3,0 5,0 8,0l-30 -80 -31 80zm-25 80c-4,-1 -8,-2 -12,-2 -4,-1 -8,-1 -12,-1 -4,0 -8,0 -12,1 -4,1 -7,1 -10,2l20 -46c3,-7 7,-15 11,-24 4,-9 8,-19 12,-29 4,-10 9,-21 13,-32 5,-11 9,-22 14,-34 3,-6 5,-14 9,-22 3,-8 6,-17 9,-25 3,-8 6,-15 8,-22 2,-6 4,-11 5,-14 4,1 8,2 12,2 4,1 8,1 12,1 4,0 8,0 12,-1 4,-1 8,-1 12,-2 3,8 6,18 10,29 4,11 8,23 13,35 4,12 9,25 14,37 5,12 9,24 13,34 5,12 9,23 13,32 4,9 7,18 11,27 3,8 7,17 11,25 4,8 8,18 13,28 -7,-1 -14,-2 -22,-3 -8,0 -16,-1 -23,-1 -7,0 -15,0 -22,1 -7,1 -15,1 -22,2 -2,-9 -5,-17 -7,-25 -2,-8 -5,-16 -8,-24 -8,0 -15,0 -23,0 -8,0 -15,0 -23,0 -6,0 -12,0 -18,0 -6,0 -12,0 -18,0 -3,8 -6,16 -8,24 -2,8 -5,17 -7,25z"/>
        <path class="fil0" d="M1751 1365c1,0 2,0 3,0l6 0c14,0 24,-4 30,-12 6,-8 8,-18 8,-32 0,-10 -1,-17 -4,-23 -3,-5 -6,-10 -10,-12 -4,-3 -8,-5 -13,-5 -5,-1 -9,-1 -13,-1 -2,0 -4,0 -5,0 -2,0 -4,0 -5,1l0 84c1,0 2,0 3,1zm147 133l0 0c-5,-8 -11,-16 -17,-25 -6,-9 -12,-18 -18,-28 -6,-9 -12,-19 -17,-28 -6,-9 -11,-18 -16,-26l-8 -13c17,-4 30,-10 40,-20 10,-10 15,-23 15,-41 0,-14 -3,-26 -9,-34 -6,-9 -13,-15 -23,-20 -9,-5 -20,-8 -31,-9 -12,-2 -23,-2 -35,-2 -11,0 -22,0 -33,2 -11,1 -22,2 -33,2 -7,0 -15,0 -23,-1 -8,0 -16,-1 -24,-2 1,15 1,31 2,46 0,15 1,30 1,43 0,14 0,26 1,38 0,11 0,21 0,28 0,17 0,33 -1,49 -1,16 -2,30 -3,42 8,-1 15,-2 22,-2 7,-1 14,-1 20,-1 7,0 14,0 21,1 7,1 13,1 20,2 -1,-18 -2,-36 -2,-55 0,-19 0,-36 0,-51l1 0c11,18 21,36 30,53 9,18 19,35 28,53 8,-1 15,-2 22,-2 7,-1 14,-1 22,-1 8,0 16,0 24,1 8,1 16,1 24,2z"/>
        <path class="fil0" d="M1579 652c2,-5 3,-9 3,-11 0,-2 -1,-6 -2,-13 0,-1 -1,-3 -2,-5 -1,-3 -3,-6 -5,-9 -2,-3 -5,-7 -8,-10 -3,-3 -6,-6 -10,-9 -3,-2 -8,-4 -13,-6 -5,-2 -10,-3 -13,-4 -3,-1 -8,-2 -16,-2 -7,0 -11,-1 -13,-1 -1,0 -3,0 -6,-1 -2,0 -4,-1 -6,-1 -2,0 -3,0 -5,0 -2,0 -3,0 -5,0 -2,0 -3,0 -4,-1 0,0 -1,0 -2,0 -1,0 -2,0 -4,-1 -2,0 -3,0 -5,0 -2,0 -4,0 -5,0 0,0 1,0 3,-1 2,0 5,0 7,-1 3,0 10,-1 22,-2 8,-1 14,-2 17,-3 3,-1 6,-2 8,-2 2,-1 5,-2 9,-4 3,-2 7,-4 10,-6 3,-2 7,-5 11,-8 1,-1 1,-1 2,-2 1,-1 2,-1 3,-3 1,-1 3,-3 4,-5 2,-2 4,-4 5,-7 2,-3 3,-4 4,-5 0,-1 2,-4 4,-8 1,-7 2,-13 1,-17 0,-4 -1,-8 -2,-10 -1,-2 -3,-5 -5,-8 -2,-3 -6,-6 -11,-10 -5,-4 -11,-6 -18,-9 -7,-2 -14,-4 -20,-5 -1,0 -3,-1 -5,-1 -2,-1 -4,-1 -4,-2 0,0 -1,-1 -3,-4 -2,-2 -4,-5 -7,-8 -3,-3 -7,-7 -12,-11 -5,-4 -9,-7 -10,-8 -2,-1 -4,-2 -5,-3 -2,-1 -4,-1 -7,0 -3,1 -7,2 -10,4 -4,2 -7,4 -10,6 -3,2 -6,5 -8,8 -2,3 -4,5 -5,8 -1,3 -2,5 -3,8 -1,2 -1,5 -1,7 0,2 0,6 -1,11 -1,5 -1,8 -1,10 0,2 0,3 0,5 0,2 0,5 1,9 1,4 1,8 2,12 1,4 1,7 1,9 0,2 1,4 1,6 1,2 1,4 2,5 1,2 3,6 6,13 3,7 5,12 6,15 1,3 2,6 4,8 0,1 -1,1 -1,1 -1,0 -1,-1 -1,-2 0,-1 -2,-3 -5,-6 -3,-3 -6,-7 -8,-10 -2,-3 -9,-10 -20,-19 -11,-10 -17,-15 -20,-16 -2,-1 -8,-3 -17,-6 -9,-3 -15,-5 -19,-5 -4,0 -7,0 -11,0 -3,0 -6,1 -8,1 -2,1 -4,1 -6,2 -1,1 -3,1 -5,2 -2,1 -4,2 -6,4 -2,2 -5,5 -10,9 -4,5 -7,9 -9,13 -2,4 -3,8 -4,13 -1,5 -1,8 -1,9 0,1 1,4 2,7 1,3 3,7 4,11 2,4 3,7 5,9 1,2 2,3 2,4 0,1 0,3 -1,5 -1,2 -2,5 -4,10 -2,5 -3,9 -4,12 -1,4 -1,6 -1,6 0,1 0,3 -1,6 -1,3 0,7 1,9 1,3 3,5 4,7 2,2 4,4 8,8 4,4 9,6 16,8 7,2 11,3 12,3 2,0 3,0 5,0 2,0 3,0 4,0 1,0 2,0 3,0 2,0 4,-1 6,-1 2,0 4,-1 7,-3 3,-1 6,-3 10,-5 4,-2 9,-6 16,-11 6,-5 14,-11 22,-18 8,-8 13,-13 15,-15 2,-2 3,-4 4,-6 1,0 2,1 1,3 -1,2 -2,5 -4,9 -2,4 -4,8 -6,12 -2,4 -5,10 -9,15 -4,6 -6,9 -6,10 -1,1 -3,3 -5,6 -3,3 -6,6 -11,11 -5,4 -8,7 -10,8 -2,1 -5,2 -10,3 -5,1 -8,2 -10,2 -2,0 -4,1 -5,1 -1,0 -2,1 -3,1 -1,0 -2,1 -2,1 0,2 1,4 5,7 4,3 6,5 7,5 2,0 3,1 4,1 1,0 3,0 5,-1 2,0 4,-1 7,-3 3,-2 7,-4 11,-6 4,-3 11,-10 20,-22 9,-12 15,-20 18,-24 3,-5 7,-14 13,-28 -1,7 -2,11 -2,12 0,1 0,2 -1,3 0,1 -1,5 -1,12 -1,7 -1,11 -1,11 0,1 0,3 -1,7 -1,4 0,14 3,29 3,15 4,24 6,26 2,2 3,4 5,6 2,2 4,4 6,5 2,2 4,3 6,5 2,2 4,3 6,4 1,1 3,1 4,1 1,0 2,0 4,0 1,0 3,0 5,0 2,0 4,0 7,0 3,0 7,-1 10,-2 4,-1 7,-3 11,-5 4,-2 7,-5 9,-9 3,-4 5,-7 6,-11 2,-3 3,-6 4,-10 1,-3 2,-6 3,-8 1,-2 2,-4 3,-6 1,-1 3,-1 7,-2 4,-1 12,-3 23,-7 12,-11 19,-19 21,-25zm120 243c18,30 37,61 57,92 20,31 39,61 59,91 20,30 38,58 56,84 -26,-3 -53,-5 -79,-7 -26,-2 -53,-3 -79,-3 -26,0 -50,1 -72,3 -23,2 -46,4 -71,7 -30,-59 -60,-117 -91,-174 -30,-58 -64,-116 -100,-174l-3 0c0,50 1,105 2,168 1,62 3,122 6,181 -22,-3 -44,-5 -66,-7 -22,-2 -44,-3 -68,-3 -21,0 -43,1 -66,3 -23,2 -47,4 -73,7 4,-38 7,-84 10,-137 3,-53 4,-107 4,-161 0,-25 0,-56 -1,-93 0,-37 -1,-78 -2,-124 -1,-45 -2,-93 -4,-143 -2,-50 -3,-100 -6,-151 26,4 52,7 78,8 26,2 51,2 75,2 36,0 72,-2 108,-5 36,-3 72,-5 108,-5 38,0 75,3 113,8 38,5 72,16 103,31 30,15 55,37 75,65 19,28 29,66 29,112 0,57 -16,102 -49,133 -33,32 -76,53 -130,64l25 42c16,26 33,55 51,85z"/>
        <path class="fil0" d="M34 52c-11,1 -22,2 -34,3 2,-6 2,-13 2,-21 0,-3 0,-6 -1,-10 0,-3 -1,-7 -2,-11 18,2 36,3 55,3 18,0 36,0 54,0 18,0 35,0 54,0 18,0 37,-1 56,-3 0,3 -1,6 -1,10 -1,4 -1,8 -1,12 0,4 0,7 1,11 0,3 1,6 1,9 -11,-1 -22,-2 -33,-3 -11,-1 -23,-1 -34,-1 0,8 -1,17 -1,27 0,10 0,21 0,31l0 20c0,14 0,27 0,40 0,12 0,25 0,36 0,12 0,23 1,34 0,11 1,23 2,35 -13,-1 -22,-2 -30,-3 -7,0 -12,-1 -16,-1 -10,0 -19,0 -26,1 -7,1 -12,2 -16,2 1,-7 1,-14 2,-23 0,-8 1,-17 1,-27 0,-9 1,-19 1,-29 0,-10 0,-19 0,-28l0 -48c0,-9 0,-20 0,-32 0,-12 -1,-24 -1,-36 -12,0 -23,0 -34,1z"/>
        <path class="fil0" d="M243 63c0,-7 0,-13 -1,-20 0,-7 -1,-14 -1,-21 0,-7 -1,-15 -1,-24l1 0c7,1 13,2 20,2 7,1 14,1 20,1 7,0 13,0 20,-1 6,0 13,-1 19,-2l1 0c0,9 -1,20 -1,30 0,11 -1,21 -1,32 0,11 -1,20 -1,29 0,9 0,16 0,21l1 0c7,-10 16,-16 26,-21 10,-5 19,-7 29,-7 22,0 38,5 48,16 10,11 15,27 15,48l0 11c0,4 0,8 0,13 0,5 0,9 0,14l0 30c0,5 0,10 0,16 0,5 0,11 0,16 0,5 0,11 0,16 0,5 0,9 0,13 -5,0 -11,-1 -18,-2 -7,-1 -14,-1 -22,-1 -6,0 -13,0 -20,1 -7,1 -14,1 -20,2 1,-18 2,-36 2,-54 0,-17 1,-35 1,-53 0,-5 0,-10 0,-14 0,-5 -1,-9 -2,-13 -1,-4 -3,-7 -6,-9 -3,-2 -7,-4 -12,-4 -5,0 -9,2 -12,5 -3,3 -5,7 -6,12 -1,5 -2,11 -2,18 0,7 0,13 0,20l0 33c0,14 0,26 1,35 0,9 1,17 2,25 -7,-1 -14,-2 -20,-2 -7,-1 -13,-1 -21,-1 -6,0 -13,0 -20,1 -7,1 -13,1 -20,2 1,-12 1,-24 2,-36 1,-13 1,-25 1,-38l0 -115c0,-8 0,-15 0,-21z"/>
        <path class="fil0" d="M585 140c0,-6 -1,-12 -2,-17 -1,-5 -3,-9 -6,-12 -3,-3 -6,-5 -12,-5 -5,0 -10,2 -12,5 -3,3 -5,7 -6,12 -1,5 -2,11 -2,17 0,6 0,12 0,17l41 0c0,-6 0,-12 0,-18zm59 97c-1,2 -2,5 -3,7 -1,3 -2,5 -3,7 -1,3 -2,6 -3,9 -10,5 -20,8 -32,10 -11,2 -23,3 -33,3 -14,0 -27,-1 -38,-4 -11,-3 -20,-7 -27,-12 -8,-5 -14,-11 -19,-18 -5,-7 -9,-14 -12,-21 -3,-7 -5,-14 -6,-21 -1,-7 -2,-14 -2,-20 0,-13 2,-25 6,-37 4,-12 10,-22 18,-30 8,-9 18,-16 30,-21 12,-5 27,-8 43,-8 14,0 28,3 41,8 13,6 24,14 33,26 7,10 12,22 13,33 2,12 3,23 3,34 -5,0 -10,-1 -16,-1 -6,0 -11,0 -16,0 -26,0 -52,0 -79,1 0,7 1,14 3,21 2,7 4,13 8,18 4,5 9,10 14,13 6,3 13,5 21,5 4,0 8,-1 13,-2 5,-1 9,-3 13,-4 4,-2 9,-4 13,-7 4,-3 7,-5 10,-9l9 10c-2,3 -3,6 -4,8z"/>
    </g>
</svg>
